# Blender v2.78 (sub 0) OBJ File: 'Table(1).blend'
# www.blender.org
mtllib Table(1).mtl
o Table_Cube.004
v 0.874625 0.384768 -0.541221
v 0.874625 0.384768 0.541221
v -0.874625 0.384768 0.541221
v -0.874624 0.384768 -0.541221
v 0.910127 0.478417 -0.563190
v 0.910126 0.478417 0.563190
v -0.910127 0.478417 0.563190
v -0.910127 0.478417 -0.563190
v 0.919683 0.450017 -0.569103
v 0.919683 0.450017 0.569103
v -0.919683 0.450017 0.569103
v -0.919683 0.450017 -0.569103
v -0.755462 -0.309958 0.420281
v -0.786541 0.463506 0.389201
v -0.786541 0.463506 0.492801
v -0.755462 -0.309958 0.461721
v -0.714022 -0.309958 0.420281
v -0.682942 0.463506 0.389202
v -0.682942 0.463506 0.492801
v -0.714022 -0.309958 0.461721
v 0.755463 -0.309958 0.420281
v 0.786542 0.463506 0.389201
v 0.786542 0.463506 0.492801
v 0.755463 -0.309958 0.461721
v 0.714023 -0.309958 0.420281
v 0.682943 0.463506 0.389202
v 0.682943 0.463506 0.492801
v 0.714023 -0.309958 0.461721
v -0.755462 -0.309957 -0.420281
v -0.786541 0.463507 -0.389201
v -0.786541 0.463507 -0.492801
v -0.755462 -0.309957 -0.461721
v -0.714022 -0.309957 -0.420281
v -0.682942 0.463507 -0.389201
v -0.682942 0.463507 -0.492801
v -0.714022 -0.309957 -0.461721
v 0.755463 -0.309958 -0.420281
v 0.786542 0.463506 -0.389201
v 0.786542 0.463506 -0.492801
v 0.755462 -0.309958 -0.461721
v 0.714023 -0.309958 -0.420281
v 0.682943 0.463506 -0.389202
v 0.682943 0.463506 -0.492801
v 0.714023 -0.309958 -0.461721
v 0.726455 -0.368736 -0.449289
v 0.726455 -0.368736 -0.432713
v 0.743031 -0.368736 -0.449289
v 0.743031 -0.368736 -0.432713
v -0.726454 -0.368735 -0.449289
v -0.726454 -0.368735 -0.432713
v -0.743030 -0.368735 -0.449289
v -0.743030 -0.368735 -0.432713
v 0.726455 -0.368736 0.449289
v 0.726455 -0.368736 0.432713
v 0.743031 -0.368736 0.449289
v 0.743031 -0.368736 0.432713
v -0.726454 -0.368736 0.449289
v -0.726454 -0.368736 0.432713
v -0.743030 -0.368736 0.449289
v -0.743030 -0.368736 0.432713
vt 0.1005 0.9278
vt 0.9003 0.4329
vt 0.9003 0.9278
vt 0.9137 0.9304
vt 0.9525 0.4426
vt 0.9525 0.9182
vt 0.9045 0.4173
vt 0.1161 0.3796
vt 0.8847 0.3796
vt 0.0483 0.4426
vt 0.0871 0.9304
vt 0.0483 0.9182
vt 0.0963 0.9434
vt 0.8847 0.9811
vt 0.9045 0.9434
vt 0.0871 0.4303
vt 0.0963 0.4173
vt 0.9137 0.4303
vt 0.4957 0.2621
vt 0.8890 0.3122
vt 0.4954 0.2841
vt 0.8890 0.1653
vt 0.4957 0.2402
vt 0.4953 0.2182
vt 0.4946 0.3060
vt 0.8893 0.2143
vt 0.8893 0.2633
vt 0.0995 0.0936
vt 0.4936 0.1115
vt 0.0999 0.1156
vt 0.0999 0.1375
vt 0.4933 0.2094
vt 0.0996 0.1595
vt 0.4926 0.0136
vt 0.4932 0.0625
vt 0.4936 0.1604
vt 0.1002 0.3150
vt 0.4932 0.2621
vt 0.4936 0.2841
vt 0.4932 0.2401
vt 0.1001 0.1681
vt 0.4936 0.2182
vt 0.4944 0.3060
vt 0.0998 0.2171
vt 0.0998 0.2660
vt 0.8917 0.0907
vt 0.4977 0.1116
vt 0.4980 0.0626
vt 0.4980 0.2095
vt 0.8914 0.1346
vt 0.8917 0.1566
vt 0.4986 0.0137
vt 0.8924 0.0688
vt 0.4977 0.1606
vt 0.9769 0.2296
vt 0.9170 0.2005
vt 0.9797 0.2000
vt 0.9161 0.1887
vt 0.9645 0.1415
vt 0.9761 0.1705
vt 0.9144 0.2240
vt 0.9661 0.2587
vt 0.9769 0.2296
vt 0.9170 0.2005
vt 0.9797 0.2000
vt 0.9761 0.1704
vt 0.9137 0.1771
vt 0.9645 0.1415
vt 0.9661 0.2587
vt 0.9164 0.2124
vt 0.9161 0.1887
vt 0.9761 0.1704
vt 0.9170 0.2005
vt 0.9161 0.1887
vt 0.9661 0.2587
vt 0.9164 0.2124
vt 0.9769 0.2295
vt 0.9798 0.1999
vt 0.9138 0.1771
vt 0.9645 0.1415
vt 0.9798 0.1999
vt 0.9161 0.1887
vt 0.9761 0.1704
vt 0.9144 0.2240
vt 0.9769 0.2295
vt 0.9661 0.2587
vt 0.9138 0.1771
vt 0.9645 0.1415
vt 0.9164 0.2124
vt 0.1005 0.4329
vt 0.1161 0.9811
vt 0.8884 0.3612
vt 0.0988 0.0717
vt 0.1008 0.3639
vt 0.8913 0.1127
vt 0.9164 0.2124
vt 0.9137 0.1771
vt 0.9144 0.2240
vt 0.9144 0.2240
vt 0.9170 0.2005
vn 0.0000 1.0000 -0.0000
vn 0.8229 -0.5682 0.0000
vn -0.0000 -0.3929 0.9196
vn -0.8229 -0.5682 -0.0000
vn 0.0000 0.2038 -0.9790
vn 0.0000 -0.3929 -0.9196
vn -0.9478 0.3189 -0.0000
vn -0.0000 0.2038 0.9790
vn 0.9478 0.3189 0.0000
vn -0.9992 -0.0401 0.0000
vn 0.9992 -0.0402 0.0000
vn 0.0000 -0.0402 -0.9992
vn 0.0000 -0.0402 0.9992
vn -0.9992 -0.0402 0.0000
vn 0.0000 -0.0401 0.9992
vn 0.0000 -0.2069 -0.9784
vn 0.0000 -0.2069 0.9784
vn -0.9784 -0.2069 0.0000
vn 0.9784 -0.2069 -0.0000
vn 0.0000 0.2039 -0.9790
vn 0.0000 -0.0401 -0.9992
usemtl Table
s off
f 8/1/1 6/2/1 5/3/1
f 9/4/2 2/5/2 1/6/2
f 10/7/3 3/8/3 2/9/3
f 3/10/4 12/11/4 4/12/4
f 5/3/5 12/13/5 8/1/5
f 1/14/6 12/13/6 9/15/6
f 11/16/7 8/1/7 12/11/7
f 6/2/8 11/17/8 10/7/8
f 5/3/9 10/18/9 9/4/9
f 16/19/10 14/20/10 13/21/10
f 18/22/11 20/23/11 17/24/11
f 14/20/12 17/25/12 13/21/12
f 16/19/13 19/26/13 15/27/13
f 21/28/11 23/29/11 24/30/11
f 28/31/14 26/32/14 25/33/14
f 21/28/12 26/34/12 22/35/12
f 27/36/13 24/30/13 23/29/13
f 30/37/14 32/38/14 29/39/14
f 36/40/11 34/41/11 33/42/11
f 33/43/13 30/37/13 29/39/13
f 35/44/12 32/38/12 31/45/12
f 37/46/11 39/47/11 38/48/11
f 42/49/10 44/50/10 41/51/10
f 37/46/15 42/52/15 41/53/15
f 39/47/12 44/50/12 43/54/12
f 40/55/16 45/56/16 44/57/16
f 46/58/17 37/59/17 41/60/17
f 44/57/18 46/58/18 41/60/18
f 48/61/19 40/55/19 37/62/19
f 36/63/16 51/64/16 32/65/16
f 29/66/17 50/67/17 33/68/17
f 33/69/19 49/70/19 36/63/19
f 32/65/18 52/71/18 29/66/18
f 24/72/17 53/73/17 55/74/17
f 21/75/16 54/76/16 25/77/16
f 25/77/18 53/73/18 28/78/18
f 24/72/19 56/79/19 21/80/19
f 16/81/17 57/82/17 20/83/17
f 58/84/16 13/85/16 17/86/16
f 20/83/19 58/87/19 17/88/19
f 60/89/18 16/81/18 13/85/18
f 8/1/1 7/90/1 6/2/1
f 9/4/2 10/18/2 2/5/2
f 10/7/3 11/17/3 3/8/3
f 3/10/4 11/16/4 12/11/4
f 5/3/20 9/15/20 12/13/20
f 1/14/6 4/91/6 12/13/6
f 11/16/7 7/90/7 8/1/7
f 6/2/8 7/90/8 11/17/8
f 5/3/9 6/2/9 10/18/9
f 16/19/10 15/27/10 14/20/10
f 18/22/11 19/26/11 20/23/11
f 14/20/12 18/92/12 17/25/12
f 16/19/15 20/23/15 19/26/15
f 21/28/11 22/35/11 23/29/11
f 28/31/14 27/36/14 26/32/14
f 21/28/21 25/93/21 26/34/21
f 27/36/13 28/31/13 24/30/13
f 30/37/14 31/45/14 32/38/14
f 36/40/11 35/44/11 34/41/11
f 33/43/15 34/94/15 30/37/15
f 35/44/12 36/40/12 32/38/12
f 37/46/11 40/95/11 39/47/11
f 42/49/14 43/54/14 44/50/14
f 37/46/15 38/48/15 42/52/15
f 39/47/12 40/95/12 44/50/12
f 40/55/16 47/96/16 45/56/16
f 46/58/17 48/97/17 37/59/17
f 44/57/18 45/56/18 46/58/18
f 48/61/19 47/96/19 40/55/19
f 36/63/16 49/70/16 51/64/16
f 29/66/17 52/71/17 50/67/17
f 33/69/19 50/98/19 49/70/19
f 32/65/18 51/64/18 52/71/18
f 24/72/17 28/78/17 53/73/17
f 21/75/16 56/99/16 54/76/16
f 25/77/18 54/76/18 53/73/18
f 24/72/19 55/74/19 56/79/19
f 16/81/17 59/100/17 57/82/17
f 58/84/16 60/89/16 13/85/16
f 20/83/19 57/82/19 58/87/19
f 60/89/18 59/100/18 16/81/18
